<svg aria-hidden="true" style="position: absolute; width: 0; height: 0; overflow: hidden;" version="1.1" xmlns="http://www.w3.org/2000/svg" xmlns:xlink="http://www.w3.org/1999/xlink">
<defs>
<symbol id="icon-x" viewBox="0 0 32 32">
<path d="M31.33 0.67c0.894 0.891 0.894 2.341 0 3.232l-12.098 12.098 12.098 12.098c0.894 0.891 0.894 2.341 0 3.232-0.891 0.894-2.341 0.894-3.232 0l-12.098-12.098-12.098 12.098c-0.891 0.894-2.341 0.894-3.232 0-0.894-0.891-0.894-2.341 0-3.232l12.098-12.098-12.098-12.098c-0.894-0.891-0.894-2.341 0-3.232 0.891-0.894 2.341-0.894 3.232 0l12.098 12.098 12.098-12.098c0.891-0.894 2.341-0.894 3.232 0z"></path>
</symbol>
<symbol id="icon-arrow" viewBox="0 0 32 32">
<path d="M32 4.741l-4.741-4.741v23.704l-23.704-23.704-3.556 3.556 23.704 23.704h-23.704l4.741 4.741h27.259v-27.259z"></path>
</symbol>
<symbol id="icon-cart" viewBox="0 0 32 32">
<path fill="#ae1332" style="fill: var(--color1, #ae1332)" d="M25.333 9.333h-4v-1.333c0-1.415-0.562-2.771-1.562-3.771s-2.357-1.562-3.771-1.562c-1.414 0-2.771 0.562-3.771 1.562s-1.562 2.357-1.562 3.771v1.333h-4c-0.354 0-0.693 0.14-0.943 0.39s-0.391 0.589-0.391 0.943v14.667c0 1.061 0.421 2.078 1.172 2.828s1.768 1.172 2.828 1.172h13.333c1.061 0 2.078-0.422 2.828-1.172s1.172-1.768 1.172-2.828v-14.667c0-0.354-0.141-0.693-0.39-0.943s-0.589-0.39-0.943-0.39zM13.333 8c0-0.707 0.281-1.386 0.781-1.886s1.178-0.781 1.886-0.781c0.707 0 1.386 0.281 1.886 0.781s0.781 1.178 0.781 1.886v1.333h-5.333v-1.333zM24 25.333c0 0.354-0.14 0.693-0.39 0.943s-0.589 0.391-0.943 0.391h-13.333c-0.354 0-0.693-0.141-0.943-0.391s-0.391-0.589-0.391-0.943v-13.333h2.667v1.333c0 0.354 0.14 0.693 0.391 0.943s0.589 0.391 0.943 0.391c0.354 0 0.693-0.141 0.943-0.391s0.39-0.589 0.39-0.943v-1.333h5.333v1.333c0 0.354 0.14 0.693 0.39 0.943s0.589 0.391 0.943 0.391 0.693-0.141 0.943-0.391c0.25-0.25 0.39-0.589 0.39-0.943v-1.333h2.667v13.333z"></path>
</symbol>
<symbol id="icon-facebook" viewBox="0 0 32 32">
<path fill="#ae1332" style="fill: var(--color1, #ae1332)" d="M19.52 4.64c0.24 0 0.48 0 0.96 0v3.6c-0.24 0-0.72 0-1.2 0s-0.96 0-1.2 0.24c-0.24 0.24-0.24 0.48-0.24 1.040 0 0.48 0 0.8 0 1.28h2.64v3.040h-2.64v13.2h-4.080v-13.28h-2.16v-3.040h2.16v-1.040c0-1.76 0.24-3.040 0.72-3.6 0.72-1.040 2.16-1.52 4.32-1.52 0.24 0.080 0.48 0.080 0.72 0.080z"></path>
</symbol>
<symbol id="icon-instagram" viewBox="0 0 32 32">
<path fill="#ae1332" style="fill: var(--color1, #ae1332)" opacity="0.8" d="M28.717 10.756c-0.016-1.074-0.215-2.14-0.596-3.145-0.667-1.716-2.024-3.073-3.743-3.737-0.994-0.373-2.044-0.573-3.108-0.596-1.368-0.061-1.801-0.078-5.273-0.078s-3.917 0-5.274 0.078c-1.062 0.023-2.112 0.223-3.106 0.596-1.719 0.664-3.078 2.021-3.743 3.737-0.374 0.992-0.576 2.041-0.596 3.101-0.061 1.367-0.080 1.8-0.080 5.265s0 3.909 0.080 5.265c0.021 1.062 0.222 2.109 0.596 3.104 0.667 1.714 2.024 3.071 3.744 3.735 0.989 0.386 2.040 0.605 3.106 0.639 1.369 0.061 1.803 0.080 5.274 0.080s3.916 0 5.274-0.080c1.062-0.021 2.113-0.221 3.108-0.595 1.719-0.666 3.076-2.022 3.743-3.737 0.374-0.994 0.574-2.041 0.596-3.104 0.061-1.365 0.080-1.798 0.080-5.265-0.003-3.466-0.003-3.906-0.082-5.264zM15.99 22.531c-3.631 0-6.572-2.936-6.572-6.561s2.941-6.561 6.572-6.561c3.628 0 6.572 2.936 6.572 6.561s-2.944 6.561-6.572 6.561zM22.823 10.696c-0.849 0-1.532-0.684-1.532-1.53s0.684-1.53 1.532-1.53c0.846 0 1.531 0.684 1.531 1.53s-0.685 1.53-1.531 1.53z"></path>
<path fill="#ae1332" style="fill: var(--color1, #ae1332)" opacity="0.8" d="M15.992 19.976c2.211 0 4.004-1.793 4.004-4.004s-1.793-4.004-4.004-4.004c-2.211 0-4.004 1.793-4.004 4.004s1.793 4.004 4.004 4.004z"></path>
</symbol>
<symbol id="icon-logo" viewBox="0 0 32 32">
<path fill="#ae1332" style="fill: var(--color1, #ae1332)" d="M28.313 1.237h-3.774c-1.164 0-2.108 0.925-2.108 2.066v3.698c0 1.141 0.944 2.066 2.108 2.066h3.774c1.164 0 2.108-0.925 2.108-2.066v-3.698c0-1.141-0.944-2.066-2.108-2.066z"></path>
<path fill="#ae1332" style="fill: var(--color1, #ae1332)" d="M7.276 22.626h-4.064c-1.254 0-2.271 0.925-2.271 2.066v3.698c0 1.141 1.017 2.066 2.271 2.066h4.064c1.254 0 2.271-0.925 2.271-2.066v-3.698c0-1.141-1.017-2.066-2.271-2.066z"></path>
<path fill="#ae1332" style="fill: var(--color1, #ae1332)" d="M6.823 11.842h-3.774c-1.164 0-2.108 0.925-2.108 2.066v3.698c0 1.141 0.944 2.066 2.109 2.066h3.773c1.164 0 2.108-0.925 2.108-2.066v-3.698c0-1.141-0.944-2.066-2.108-2.066z"></path>
<path fill="#ae1332" style="fill: var(--color1, #ae1332)" d="M17.662 22.568h-3.774c-1.164 0-2.108 0.925-2.108 2.066l-0 3.698c0 1.141 0.944 2.066 2.109 2.066h3.773c1.165 0 2.109-0.925 2.109-2.066v-3.698c0-1.141-0.944-2.066-2.109-2.066z"></path>
<path fill="#ae1332" style="fill: var(--color1, #ae1332)" d="M6.823 1.022h-3.774c-1.164 0-2.108 0.925-2.108 2.066v3.698c0 1.141 0.944 2.066 2.109 2.066h3.773c1.164 0 2.108-0.925 2.108-2.066v-3.698c0-1.141-0.944-2.066-2.108-2.066z"></path>
<path fill="#ae1332" style="fill: var(--color1, #ae1332)" d="M17.954 11.951h-3.774c-1.164 0-2.108 0.925-2.108 2.066v3.698c0 1.141 0.944 2.066 2.109 2.066h3.773c1.165 0 2.108-0.925 2.108-2.066v-3.698c0-1.141-0.944-2.066-2.108-2.066z"></path>
<path fill="#ae1332" style="fill: var(--color1, #ae1332)" d="M28.549 22.568h-3.774c-1.164 0-2.108 0.925-2.108 2.066v3.698c0 1.141 0.944 2.066 2.108 2.066h3.774c1.164 0 2.108-0.925 2.108-2.066v-3.698c0-1.141-0.944-2.066-2.108-2.066z"></path>
<path fill="#ae1332" style="fill: var(--color1, #ae1332)" d="M17.497 1.152h-3.774c-1.164 0-2.108 0.925-2.108 2.066v3.698c0 1.141 0.944 2.066 2.109 2.066h3.773c1.164 0 2.108-0.926 2.108-2.067v-3.697c0-1.141-0.944-2.066-2.108-2.066z"></path>
<path fill="#ae1332" style="fill: var(--color1, #ae1332)" d="M28.277 12.165h-3.774c-1.164 0-2.108 0.925-2.108 2.066v3.698c0 1.141 0.944 2.066 2.108 2.066h3.774c1.164 0 2.108-0.925 2.108-2.066v-3.698c0-1.141-0.944-2.066-2.108-2.066z"></path>
</symbol>
<symbol id="icon-menu" viewBox="0 0 32 32">
<path fill="#ae1332" style="fill: var(--color1, #ae1332)" d="M2.667 7.993c0-0.733 0.595-1.327 1.327-1.327h10.68c0.352 0 0.689 0.14 0.938 0.389s0.389 0.586 0.389 0.938c0 0.352-0.14 0.689-0.389 0.938s-0.586 0.389-0.938 0.389h-10.68c-0.352 0-0.689-0.14-0.938-0.389s-0.389-0.586-0.389-0.938zM2.667 16c0-0.733 0.595-1.327 1.327-1.327h24.013c0.352 0 0.689 0.14 0.938 0.389s0.389 0.586 0.389 0.938c0 0.352-0.14 0.689-0.389 0.938s-0.586 0.389-0.938 0.389h-24.013c-0.352 0-0.689-0.14-0.938-0.389s-0.389-0.586-0.389-0.938zM3.993 22.68c-0.352 0-0.689 0.14-0.938 0.389s-0.389 0.586-0.389 0.938c0 0.352 0.14 0.689 0.389 0.938s0.586 0.389 0.938 0.389h16.013c0.352 0 0.689-0.14 0.938-0.389s0.389-0.586 0.389-0.938c0-0.352-0.14-0.689-0.389-0.938s-0.586-0.389-0.938-0.389h-16.013z"></path>
</symbol>
<symbol id="icon-pick" viewBox="0 0 32 32">
<path fill="#fff" style="fill: var(--color2, #fff)" d="M26.151 1.405c0.992-1.463 2.982-1.845 4.444-0.853s1.845 2.982 0.853 4.444l-17.356 25.6c-1.269 1.872-4.028 1.872-5.297 0l-8.244-12.16c-0.992-1.463-0.61-3.453 0.853-4.444s3.453-0.61 4.444 0.853l5.595 8.253 14.707-21.693z"></path>
</symbol>
<symbol id="icon-youtube" viewBox="0 0 32 32">
<path fill="#ae1332" style="fill: var(--color1, #ae1332)" opacity="0.8" d="M24.24 6c-1.36-0.080-4.16-0.16-8.4-0.16h-0.56c-4.080 0-6.8 0.080-8.16 0.24-1.84 0.16-3.12 0.64-3.84 1.28-0.64 0.56-1.12 1.6-1.28 2.96-0.080 0.88-0.16 2.72-0.16 5.52v0.4c0 2.64 0.080 4.48 0.24 5.36 0.24 1.28 0.64 2.24 1.44 2.8 0.8 0.64 2.16 1.040 4.080 1.2 1.36 0.080 4.16 0.16 8.4 0.16h0.56c4.080 0 6.8-0.080 8.16-0.24 1.84-0.16 3.12-0.64 3.84-1.28 0.64-0.56 1.12-1.6 1.28-2.96 0.080-0.88 0.16-2.72 0.16-5.52v-0.4c0-2.64-0.080-4.48-0.24-5.36-0.24-1.28-0.64-2.24-1.44-2.8-0.8-0.64-2.16-1.040-4.080-1.2zM21.12 15.84l-8.8 5.28v-10.56l8.8 5.28z"></path>
</symbol>
<symbol id="icon-basket" viewBox="0 0 32 32">
<path d="M25.333 9.333h-4v-1.333c0-1.415-0.562-2.771-1.562-3.771s-2.357-1.562-3.771-1.562c-1.415 0-2.771 0.562-3.771 1.562s-1.562 2.357-1.562 3.771v1.333h-4c-0.354 0-0.693 0.14-0.943 0.39s-0.391 0.589-0.391 0.943v14.667c0 1.061 0.421 2.078 1.172 2.828s1.768 1.172 2.828 1.172h13.333c1.061 0 2.078-0.422 2.828-1.172s1.172-1.768 1.172-2.828v-14.667c0-0.354-0.14-0.693-0.39-0.943s-0.589-0.39-0.943-0.39zM13.333 8c0-0.707 0.281-1.386 0.781-1.886s1.178-0.781 1.886-0.781c0.707 0 1.386 0.281 1.886 0.781s0.781 1.178 0.781 1.886v1.333h-5.333v-1.333zM24 25.333c0 0.354-0.141 0.693-0.391 0.943s-0.589 0.391-0.943 0.391h-13.333c-0.354 0-0.693-0.141-0.943-0.391s-0.391-0.589-0.391-0.943v-13.333h2.667v1.333c0 0.354 0.14 0.693 0.391 0.943s0.589 0.391 0.943 0.391c0.354 0 0.693-0.141 0.943-0.391s0.39-0.589 0.39-0.943v-1.333h5.333v1.333c0 0.354 0.14 0.693 0.39 0.943s0.589 0.391 0.943 0.391c0.354 0 0.693-0.141 0.943-0.391s0.39-0.589 0.39-0.943v-1.333h2.667v13.333z"></path>
</symbol>
</defs>
</svg>
